HIERARCHY
ROOT Hips
{
	OFFSET 0.00000 0.00000 0.00000
	CHANNELS 6 Xposition Yposition Zposition Zrotation Yrotation Xrotation 
	JOINT LHipJoint
	{
		OFFSET 0 0 0
		CHANNELS 3 Zrotation Yrotation Xrotation
		JOINT LeftUpLeg
		{
			OFFSET 1.56857 -1.73443 1.15205
			CHANNELS 3 Zrotation Yrotation Xrotation
			JOINT LeftLeg
			{
				OFFSET 2.39362 -6.57643 0.00000
				CHANNELS 3 Zrotation Yrotation Xrotation
				JOINT LeftFoot
				{
					OFFSET 2.50952 -6.89485 0.00000
					CHANNELS 3 Zrotation Yrotation Xrotation
					JOINT LeftToeBase
					{
						OFFSET 0.17171 -0.47178 1.88682
						CHANNELS 3 Zrotation Yrotation Xrotation
						End Site
						{
							OFFSET 0.00000 -0.00000 0.98146
						}
					}
				}
			}
		}
	}
	JOINT RHipJoint
	{
		OFFSET 0 0 0
		CHANNELS 3 Zrotation Yrotation Xrotation
		JOINT RightUpLeg
		{
			OFFSET -1.28153 -1.73443 1.15205
			CHANNELS 3 Zrotation Yrotation Xrotation
			JOINT RightLeg
			{
				OFFSET -2.26861 -6.23296 0.00000
				CHANNELS 3 Zrotation Yrotation Xrotation
				JOINT RightFoot
				{
					OFFSET -2.54143 -6.98254 0.00000
					CHANNELS 3 Zrotation Yrotation Xrotation
					JOINT RightToeBase
					{
						OFFSET -0.23309 -0.64041 1.93119
						CHANNELS 3 Zrotation Yrotation Xrotation
						End Site
						{
							OFFSET -0.00000 -0.00000 1.02013
						}
					}
				}
			}
		}
	}
	JOINT LowerBack
	{
		OFFSET 0 0 0
		CHANNELS 3 Zrotation Yrotation Xrotation
		JOINT Spine
		{
			OFFSET -0.07096 2.10460 -0.27878
			CHANNELS 3 Zrotation Yrotation Xrotation
			JOINT Spine1
			{
				OFFSET -0.00826 2.13662 -0.08279
				CHANNELS 3 Zrotation Yrotation Xrotation
				JOINT Neck
				{
					OFFSET 0 0 0
					CHANNELS 3 Zrotation Yrotation Xrotation
					JOINT Neck1
					{
						OFFSET 0.03239 1.77799 0.24435
						CHANNELS 3 Zrotation Yrotation Xrotation
						JOINT Head
						{
							OFFSET 0.01026 1.74194 -0.49664
							CHANNELS 3 Zrotation Yrotation Xrotation
							End Site
							{
								OFFSET 0.00170 1.83057 -0.19653
							}
						}
					}
				}
				JOINT LeftShoulder
				{
					OFFSET 0 0 0
					CHANNELS 3 Zrotation Yrotation Xrotation
					JOINT LeftArm
					{
						OFFSET 3.19178 1.35907 -0.31412
						CHANNELS 3 Zrotation Yrotation Xrotation
						JOINT LeftForeArm
						{
							OFFSET 4.85247 -0.00000 -0.00000
							CHANNELS 3 Zrotation Yrotation Xrotation
							JOINT LeftHand
							{
								OFFSET 3.55584 -0.00000 0.00000
								CHANNELS 3 Zrotation Yrotation Xrotation
								JOINT LeftFingerBase
								{
									OFFSET 0 0 0
									CHANNELS 3 Zrotation Yrotation Xrotation
									JOINT LeftHandIndex1
									{
										OFFSET 0.69320 -0.00000 0.00000
										CHANNELS 3 Zrotation Yrotation Xrotation
										End Site
										{
											OFFSET 0.55888 -0.00000 0.00000
										}
									}
								}
								JOINT LThumb
								{
									OFFSET 0 0 0
									CHANNELS 3 Zrotation Yrotation Xrotation
									End Site
									{
										OFFSET 0.56741 -0.00000 0.56741
									}
								}
							}
						}
					}
				}
				JOINT RightShoulder
				{
					OFFSET 0 0 0
					CHANNELS 3 Zrotation Yrotation Xrotation
					JOINT RightArm
					{
						OFFSET -3.28999 1.24191 -0.26899
						CHANNELS 3 Zrotation Yrotation Xrotation
						JOINT RightForeArm
						{
							OFFSET -4.64462 -0.00000 0.00000
							CHANNELS 3 Zrotation Yrotation Xrotation
							JOINT RightHand
							{
								OFFSET -3.40703 -0.00000 0.00000
								CHANNELS 3 Zrotation Yrotation Xrotation
								JOINT RightFingerBase
								{
									OFFSET 0 0 0
									CHANNELS 3 Zrotation Yrotation Xrotation
									JOINT RightHandIndex1
									{
										OFFSET -0.61958 -0.00000 0.00000
										CHANNELS 3 Zrotation Yrotation Xrotation
										End Site
										{
											OFFSET -0.49952 -0.00000 0.00000
										}
									}
								}
								JOINT RThumb
								{
									OFFSET 0 0 0
									CHANNELS 3 Zrotation Yrotation Xrotation
									End Site
									{
										OFFSET -0.50715 -0.00000 0.50715
									}
								}
							}
						}
					}
				}
			}
		}
	}
}
MOTION
Frames: 8
Frame Time: 0.0454545
0.00 0.00 0.00 184.8360 136.7860 184.1540 0.0000 0.0000 0.0000 -32.5370 20.7676 -13.4142 0.0552 1.5159 4.1696 0.1179 7.2002 -12.6130 1.1763 6.8838 19.3717 0.0000 0.0000 0.0000 3.3723 -7.3454 14.4310 -1.7896 -8.4134 23.9769 0.3333 11.1715 -0.8374 -0.0011 -0.2164 0.5944 1.4476 4.2220 3.5018 0.8328 5.6766 2.6108 -0.1055 2.8590 0.7800 11.5317 8.9919 -22.1598 -1.3292 9.3095 28.4291 -0.6603 5.1736 14.0672 0.0000 -0.0000 0.0000 -78.6271 11.5646 28.0634 18.7396 -29.0938 -4.9036 -0.0000 -0.0000 10.6734 32.0714 -32.7008 -18.7022 -7.1250 0.0000 -0.0000 -0.0175 -7.1691 0.0195 0.0000 -0.0000 0.0000 83.0333 2.7016 41.9373 -16.7010 26.4619 -3.9532 0.0000 0.0000 11.4824 -20.1380 -22.7597 8.0744 7.1250 -0.0000 -0.0000 9.3284 -53.8167 -2.0357
0.00 0.00 0.00 191.8550 134.9410 188.2360 0.0000 0.0000 0.0000 -38.3954 22.4138 -10.0461 0.0994 2.0333 5.5976 0.5068 3.1007 -14.9373 1.3217 7.2810 20.5505 0.0000 0.0000 0.0000 -4.3750 -3.1698 5.7154 -5.4518 -13.8752 42.7399 0.0453 9.3811 12.5411 -0.4176 -4.1479 11.4932 -6.1910 2.9628 5.0371 0.4996 3.7874 4.4815 3.8258 1.7667 1.3914 11.3188 9.5964 -21.0709 -1.4131 10.4745 28.8247 -0.4634 5.6569 14.0864 0.0000 -0.0000 0.0000 -71.8976 4.4103 43.7398 32.6394 -43.0510 -13.1753 -0.0000 -0.0000 0.1205 33.5588 -31.1965 -18.9630 -7.1250 0.0000 -0.0000 1.1364 -6.0182 -1.2495 0.0000 -0.0000 0.0000 80.1950 -2.1656 21.0500 -13.7680 22.4021 -2.7391 0.0000 0.0000 10.3242 -22.8626 -30.6406 12.1280 7.1250 -0.0000 -0.0000 10.4105 -62.4198 -4.4332
0.00 0.00 0.00 200.2770 126.7460 197.3490 0.0000 0.0000 0.0000 -43.9559 22.3433 -4.8245 0.0710 1.7190 4.7297 0.5023 -5.1942 -12.6247 1.8880 8.6287 24.6407 0.0000 0.0000 0.0000 -11.7326 -2.5687 -8.9430 -8.4113 -16.4136 54.0311 0.2951 10.7143 -1.2002 -0.0015 0.2538 -0.6972 -9.3214 0.4955 5.2719 -0.2585 0.4684 5.2411 4.9450 -0.0135 2.4608 10.8300 9.3416 -20.9607 -1.3800 10.3643 29.9096 -0.3784 5.5782 14.4901 0.0000 0.0000 0.0000 -68.5118 -20.0214 50.4171 32.3535 -42.8272 -12.9805 -0.0000 -0.0000 15.8074 29.2001 -32.2204 -16.5932 -7.1250 0.0000 -0.0000 -1.5022 -5.8378 1.6478 0.0000 0.0000 0.0000 76.4259 -16.6429 8.9973 -15.8215 25.2781 -3.5694 0.0000 -0.0000 -3.9779 -19.9576 -33.6727 11.3836 7.1250 -0.0000 -0.0000 16.1617 -64.6153 -7.7691
0.00 0.00 0.00 181.1800 109.2560 189.7680 0.0000 0.0000 0.0000 -27.0927 6.7051 -22.5716 10.2719 17.5600 60.3935 1.1117 -1.0380 -19.6147 0.0889 -1.9228 -5.2923 0.0000 0.0000 0.0000 18.1913 0.7271 -33.6742 -4.6420 -12.9690 39.2524 -1.4883 -2.3937 -24.0172 -0.7192 -5.4193 15.1084 -0.8840 0.5667 16.1420 1.5502 1.1517 10.2865 1.9692 0.6996 1.8483 11.3239 8.6513 -20.9650 -2.8499 9.7335 29.9788 -1.1850 5.1409 14.5991 -0.0000 0.0000 0.0000 -92.2544 -24.5613 53.0075 18.9489 -29.3551 -5.0058 -0.0000 0.0000 -0.9862 34.3219 -24.5823 -15.8551 -7.1250 0.0000 -0.0000 2.9230 1.0306 -2.8737 -0.0000 0.0000 0.0000 75.4290 -9.4823 22.5919 -33.9271 44.0307 -14.0624 0.0000 -0.0000 -5.8849 -10.8442 -33.3072 6.0049 7.1250 -0.0000 -0.0000 25.8715 -61.8926 -11.0334
0.00 0.00 0.00 361.9380 121.5590 358.1590 0.0000 0.0000 0.0000 -15.6346 10.3831 7.9878 4.6419 12.9688 39.2517 -0.0784 -8.5075 10.4557 0.0024 -0.3174 -0.8720 0.0000 0.0000 0.0000 11.9729 -13.1795 -1.6020 -0.2289 -3.0798 8.5010 -0.3827 -2.0350 -12.6081 -0.5198 -4.6208 12.8302 -2.6031 1.0713 5.0957 1.2679 1.3670 1.9166 2.6837 0.6955 -0.9751 9.9789 8.7819 -22.8643 -6.8046 10.7857 21.4864 -2.2748 4.8975 11.7404 -0.0000 0.0000 0.0000 -74.6865 2.1351 13.6574 26.1588 -37.3651 -8.9839 -0.0000 0.0000 -13.9972 27.1659 -14.0735 -7.1131 -7.1250 0.0000 -0.0000 -0.1961 14.2433 0.1418 -0.0000 0.0000 0.0000 71.1396 2.7446 17.1074 -53.0800 54.1646 -28.6529 0.0000 -0.0000 -20.0373 -24.8757 -34.0849 14.5662 7.1250 -0.0000 -0.0000 10.5806 -66.4113 -5.4888
0.00 0.00 0.00 365.1460 142.3340 362.9580 0.0000 0.0000 0.0000 -20.1996 14.2170 -27.7905 3.4230 11.3503 33.4705 1.0061 13.3664 -28.0310 0.6470 5.1453 14.3236 0.0000 0.0000 0.0000 11.2085 -11.2251 14.6575 -0.6082 -4.9916 13.8846 -0.9479 -17.9097 -32.1916 -2.6923 -10.1794 29.5597 0.0983 4.0920 8.5583 -2.1019 5.6807 3.7493 -2.7225 2.9686 -0.6703 11.6037 9.3555 -22.6784 -14.2861 13.7460 21.6902 -4.7770 5.5676 12.9049 0.0000 -0.0000 0.0000 -83.1958 20.1686 -0.3134 8.8459 -14.9146 -1.1601 -0.0000 -0.0000 28.0587 15.9006 -23.4845 -6.4765 -7.1250 0.0000 -0.0000 -8.2148 5.8770 7.4088 0.0000 -0.0000 0.0000 66.0266 21.1238 63.1870 -51.1393 53.4448 -27.0867 0.0000 0.0000 11.0954 -12.6029 -22.8269 4.9573 7.1250 -0.0000 -0.0000 16.8467 -52.5216 -3.1920
0.00 0.00 0.00 358.5510 163.1390 360.2150 0.0000 0.0000 0.0000 -29.2071 9.4304 -1.9582 0.5244 4.6409 12.8871 1.0061 5.1476 -21.4738 0.0308 1.1320 3.1122 0.0000 0.0000 0.0000 8.6938 -5.6248 -4.6757 -3.2077 -11.0240 32.3609 -0.6515 -13.3817 -25.3388 -3.0958 -10.8485 31.7705 -8.3232 2.8879 8.1090 -3.8614 3.7199 3.7227 0.3127 2.0297 -0.8892 10.2263 8.7229 -23.7608 -11.7362 13.9505 27.1924 -3.5552 5.8597 15.0964 0.0000 -0.0000 0.0000 -65.7939 4.3428 41.3179 50.5506 -53.2152 -26.6145 -0.0000 0.0000 -1.6136 18.9458 -25.3560 -8.3627 -7.1250 0.0000 -0.0000 -6.4868 3.5141 6.1170 0.0000 -0.0000 0.0000 60.9495 16.6502 65.1881 -43.3257 49.9214 -20.9497 0.0000 0.0000 8.5392 -6.8637 -22.9186 2.6838 7.1250 -0.0000 -0.0000 22.3835 -51.6396 -3.8201
0.00 0.00 0.00 359.6630 207.9580 368.6750 0.0000 0.0000 0.0000 -15.7160 3.2751 -23.9360 3.1806 10.9819 32.2189 1.0961 -2.7962 -19.0532 1.5668 -7.8987 -22.4067 0.0000 0.0000 0.0000 23.0498 -4.8401 -1.3318 -0.6027 -4.9696 13.8219 -1.5488 -1.4293 -24.0748 -0.0526 -1.4799 4.0704 1.1626 3.7310 12.6153 -1.3196 4.4927 5.9858 -2.5887 2.0565 -0.5788 4.8167 3.1209 -22.1757 -2.9519 2.7729 30.9076 -1.5918 1.0304 14.4885 -0.0000 0.0000 0.0000 -79.1946 24.5245 32.4968 15.8052 -25.2558 -3.5624 -0.0000 -0.0000 23.0239 19.8463 -31.5514 -10.6951 -7.1250 0.0000 -0.0000 -6.6493 -2.9586 7.0302 -0.0000 0.0000 0.0000 65.8883 26.7023 32.6376 -49.2495 52.6883 -25.5760 0.0000 -0.0000 -11.3301 -23.4754 -31.1986 12.6788 7.1250 -0.0000 -0.0000 10.0706 -63.1401 -4.4574
